<svg version="1.1" xmlns="http://www.w3.org/2000/svg" viewBox="0 0 564 506" width="564" height="506" filter="invert(93%) hue-rotate(180deg)">
  <!-- svg-source:excalidraw -->
  
  <defs>
    <style class="style-fonts">
      @font-face {
        font-family: "Virgil";
        src: url("https://excalidraw.com/Virgil.woff2");
      }
      @font-face {
        font-family: "Cascadia";
        src: url("https://excalidraw.com/Cascadia.woff2");
      }
    </style>
  </defs>
  <g transform="translate(195.75 10) rotate(0 89 12.5)"><text x="89" y="20" font-family="Cascadia, Segoe UI Emoji" font-size="20px" fill="#222222" text-anchor="middle" style="white-space: pre;" direction="ltr">Point(x=1, y=2)</text></g><g transform="translate(190.25 471) rotate(0 94.5 12.5)"><text x="94.5" y="20" font-family="Cascadia, Segoe UI Emoji" font-size="20px" fill="#222222" text-anchor="middle" style="white-space: pre;" direction="ltr">b'{"x":1,"y":2}'</text></g><g transform="translate(10 239.03171166896823) rotate(0 94.5 12.5)"><text x="94.5" y="20" font-family="Cascadia, Segoe UI Emoji" font-size="20px" fill="#222222" text-anchor="middle" style="white-space: pre;" direction="ltr">{'x': 1, 'y': 2}</text></g><g stroke-linecap="round" transform="translate(16.5 108.62500000000003) rotate(0 88 33.499999999999986)"><path d="M-1.67 -1.4 C46.58 -1.15, 91.66 -0.12, 177.39 0.93 M-0.92 0.69 C64.96 -1.8, 128.14 -0.74, 175.44 -0.52 M177.03 -0.59 C177.34 25.56, 176.21 47.14, 177.11 66.3 M176.72 -0.68 C177.24 25.98, 176.79 50.82, 176.5 66.12 M176.03 66.97 C109.65 66.5, 45.96 66.62, -1.82 66.6 M175.33 66.24 C133.53 66.96, 88.47 66.46, -0.18 67.84 M-0.93 65.9 C1.23 45.81, -0.72 26.43, 0.57 0.11 M-0.86 67.9 C-0.09 48.27, -0.15 30.79, -0.89 0.93" stroke="#222222" stroke-width="1" fill="none"></path></g><g transform="translate(39 129.62500000000003) rotate(0 65.5 12.5)"><text x="65.5" y="20" font-family="Cascadia, Segoe UI Emoji" font-size="20px" fill="#222222" text-anchor="middle" style="white-space: pre;" direction="ltr">to_builtins</text></g><g stroke-linecap="round" transform="translate(51 327.625) rotate(0 53.5 33.5)"><path d="M1.56 0.17 C41.73 1.95, 81.6 1.68, 108.29 -0.24 M0.84 -0.59 C39.34 -0.27, 78.34 -1.27, 107.6 -0.03 M108.36 1.44 C107.57 25.01, 108.46 51.54, 108.73 68.69 M107.68 0.1 C107.71 12.8, 107.98 26.62, 107.7 66.58 M105.84 67.19 C79.43 67.29, 49.35 66.58, -1.08 68.12 M107.82 66.84 C73.21 65.52, 41.13 67.03, 0.13 66.1 M0.63 66.78 C-1.01 43.54, 0.89 17.44, -0.68 -1.44 M-0.57 66.09 C-0.06 41.02, -0.32 17.12, 0.2 0.62" stroke="#222222" stroke-width="1" fill="none"></path></g><g transform="translate(74 348.625) rotate(0 30.5 12.5)"><text x="30.5" y="20" font-family="Cascadia, Segoe UI Emoji" font-size="20px" fill="#222222" text-anchor="middle" style="white-space: pre;" direction="ltr">dumps</text></g><g stroke-linecap="round"><g transform="translate(100.5 186.125) rotate(0 -0.3532932855725335 21.73584488956257)"><path d="M0.62 0.13 C0.73 7.39, -0.07 35.84, -0.26 43.2 M-0.51 -0.85 C-0.51 6.57, -1.17 36.55, -1.34 44.32" stroke="#222222" stroke-width="2" fill="none"></path></g><g transform="translate(100.5 186.125) rotate(0 -0.3532932855725335 21.73584488956257)"><path d="M-8.21 23.07 C-8.21 27.34, -4.78 32.98, -0.37 44.24 M-9.12 24.16 C-5.58 29.74, -3.89 34.6, -0.78 43.6" stroke="#222222" stroke-width="2" fill="none"></path></g><g transform="translate(100.5 186.125) rotate(0 -0.3532932855725335 21.73584488956257)"><path d="M6.84 23.39 C3.45 27.67, 3.49 33.23, -0.37 44.24 M5.93 24.48 C5.12 29.82, 2.46 34.59, -0.78 43.6" stroke="#222222" stroke-width="2" fill="none"></path></g></g><mask></mask><g stroke-linecap="round"><g transform="translate(104.15188922305026 272.751193080265) rotate(0 0.06194385917854106 21.754830003902327)"><path d="M-0.26 -0.8 C-0.44 6.57, -0.54 36.74, -0.49 44.31 M1.81 1.4 C1.37 8.37, -1.28 35.49, -1.69 42.34" stroke="#222222" stroke-width="2" fill="none"></path></g><g transform="translate(104.15188922305026 272.751193080265) rotate(0 0.06194385917854106 21.754830003902327)"><path d="M-8.85 20.32 C-4.94 28.74, -2.43 35.98, -1.91 43.69 M-6.87 21.29 C-6.19 24.41, -4.74 29.01, -2.09 41.44" stroke="#222222" stroke-width="2" fill="none"></path></g><g transform="translate(104.15188922305026 272.751193080265) rotate(0 0.06194385917854106 21.754830003902327)"><path d="M6.15 21.53 C4.78 29.5, 2.02 36.31, -1.91 43.69 M8.13 22.5 C5.77 25.48, 4.17 29.82, -2.09 41.44" stroke="#222222" stroke-width="2" fill="none"></path></g></g><mask></mask><g transform="translate(365 239.9273432283755) rotate(0 94.5 12.5)"><text x="94.5" y="20" font-family="Cascadia, Segoe UI Emoji" font-size="20px" fill="#222222" text-anchor="middle" style="white-space: pre;" direction="ltr">{'x': 1, 'y': 2}</text></g><g stroke-linecap="round" transform="translate(371.5 108.625) rotate(0 88 33.5)"><path d="M1.62 1.2 C41.9 0.79, 82.31 -0.39, 177.37 -1.83 M-0.11 0.47 C64.44 0.52, 130.61 1.02, 176.9 0.51 M176.23 -1.11 C177.57 17.41, 178.18 37.9, 174.1 68.45 M176.22 -0.95 C176.95 14.7, 177.16 30.73, 175.61 67.02 M176.34 67.31 C121.64 66.77, 69.83 68.29, 0.14 65.66 M175.06 66.34 C136.47 67.55, 97.43 65.81, 0.71 66.54 M-1.33 68.37 C0.36 50.71, -0.89 32.75, 1.58 -1.71 M-0.63 66.43 C-0.51 41.82, 0.58 15.4, -0.95 -0.46" stroke="#222222" stroke-width="1" fill="none"></path></g><g transform="translate(382.5 129.625) rotate(0 77 12.5)"><text x="77" y="20" font-family="Cascadia, Segoe UI Emoji" font-size="20px" fill="#222222" text-anchor="middle" style="white-space: pre;" direction="ltr">from_builtins</text></g><g stroke-linecap="round" transform="translate(406 327.625) rotate(0 53.5 33.5)"><path d="M1.39 0.93 C34.28 -0.88, 67.36 -2.47, 108.39 1.68 M-0.56 -0.52 C26.34 -0.53, 52.37 0.01, 106.7 0.68 M108.11 -0.7 C108.8 26.6, 105.18 51.27, 105.65 68.36 M107.5 -0.88 C107.85 20.35, 106.76 41.57, 106.99 66.42 M105.18 66.6 C72.8 68.28, 40.9 65.82, -1.53 68.64 M106.82 67.84 C76.79 65.39, 47.03 65.83, -0.55 67.31 M0.57 67.11 C-0.24 46.18, 2.03 26.54, 1.79 -1.14 M-0.89 67.93 C0.63 53.61, -0.53 38.52, -0.61 -0.19" stroke="#222222" stroke-width="1" fill="none"></path></g><g transform="translate(429 348.625) rotate(0 30.5 12.5)"><text x="30.5" y="20" font-family="Cascadia, Segoe UI Emoji" font-size="20px" fill="#222222" text-anchor="middle" style="white-space: pre;" direction="ltr">loads</text></g><g stroke-linecap="round"><g transform="translate(459.6765719213613 319.39937860951295) rotate(0 -0.17993658421562486 -22.466124966489133)"><path d="M-0.49 0.31 C-0.6 -6.8, -0.82 -36.01, -0.92 -43.42 M1.46 -0.58 C1.22 -7.97, -1.27 -38.19, -1.82 -45.24" stroke="#222222" stroke-width="2" fill="none"></path></g><g transform="translate(459.6765719213613 319.39937860951295) rotate(0 -0.17993658421562486 -22.466124966489133)"><path d="M7.83 -25.08 C5.88 -30.92, 2.14 -35.07, -3.75 -46.64 M7.62 -26.22 C4.4 -33.27, 0.09 -40.78, -2.41 -46.15" stroke="#222222" stroke-width="2" fill="none"></path></g><g transform="translate(459.6765719213613 319.39937860951295) rotate(0 -0.17993658421562486 -22.466124966489133)"><path d="M-7.17 -23.89 C-4.94 -30, -4.5 -34.48, -3.75 -46.64 M-7.38 -25.02 C-5.11 -32.53, -3.92 -40.49, -2.41 -46.15" stroke="#222222" stroke-width="2" fill="none"></path></g></g><mask></mask><g stroke-linecap="round"><g transform="translate(459.85390184521657 230.07787110708188) rotate(0 -0.978790173955872 -21.776528786495334)"><path d="M0.08 0.58 C-0.01 -6.83, -1 -36.51, -1.05 -44.13 M-1.33 -0.16 C-1.55 -7.4, -2.15 -35.29, -2.02 -42.67" stroke="#222222" stroke-width="2" fill="none"></path></g><g transform="translate(459.85390184521657 230.07787110708188) rotate(0 -0.978790173955872 -21.776528786495334)"><path d="M6.57 -22.1 C3.34 -26.03, -0.34 -34.13, -0.69 -41.36 M6.16 -22.74 C2.73 -29.52, 0.14 -36.04, -1.16 -42.78" stroke="#222222" stroke-width="2" fill="none"></path></g><g transform="translate(459.85390184521657 230.07787110708188) rotate(0 -0.978790173955872 -21.776528786495334)"><path d="M-8.49 -22.03 C-7.8 -25.99, -7.58 -34.11, -0.69 -41.36 M-8.9 -22.68 C-7.57 -29.32, -5.41 -35.87, -1.16 -42.78" stroke="#222222" stroke-width="2" fill="none"></path></g></g><mask></mask><g stroke-linecap="round"><g transform="translate(184.5 25) rotate(0 -40.94423500411216 36.27425003494135)"><path d="M-0.05 -0.13 C-8.76 4.24, -38.56 14.52, -52.19 26.84 C-65.83 39.16, -77.17 66.07, -81.84 73.8 M-1.53 -1.25 C-10.34 3.18, -39.74 15.59, -52.72 27.77 C-65.69 39.96, -74.91 64.1, -79.39 71.87" stroke="#222222" stroke-width="2" fill="none"></path></g><g transform="translate(184.5 25) rotate(0 -40.94423500411216 36.27425003494135)"><path d="M-76.67 46.88 C-79.15 52.22, -76.79 63.01, -79.07 72.46 M-76.84 44.63 C-77.47 49.89, -76.61 55.96, -79.66 72.43" stroke="#222222" stroke-width="2" fill="none"></path></g><g transform="translate(184.5 25) rotate(0 -40.94423500411216 36.27425003494135)"><path d="M-60.43 54.94 C-67.93 57.8, -70.56 66.12, -79.07 72.46 M-60.6 52.69 C-64.53 56.21, -66.93 60.67, -79.66 72.43" stroke="#222222" stroke-width="2" fill="none"></path></g></g><mask></mask><g stroke-linecap="round"><g transform="translate(104.5 404) rotate(0 37.277890021549524 40.72398981372828)"><path d="M0.81 -1.16 C4.51 6.83, 9.83 34.07, 22.16 47.8 C34.49 61.52, 66.09 75.85, 74.78 81.19 M-0.23 0.85 C3.86 8.51, 11.99 32.47, 24.43 46.09 C36.87 59.72, 66.04 76.91, 74.43 82.61" stroke="#222222" stroke-width="2" fill="none"></path></g><g transform="translate(104.5 404) rotate(0 37.277890021549524 40.72398981372828)"><path d="M43.25 74.57 C55.16 79.04, 62.8 80.29, 72.44 83.72 M44.59 75.06 C52.68 77.63, 58.2 79.82, 74.15 82.71" stroke="#222222" stroke-width="2" fill="none"></path></g><g transform="translate(104.5 404) rotate(0 37.277890021549524 40.72398981372828)"><path d="M54.36 57.32 C62.96 66.97, 67.31 73.32, 72.44 83.72 M55.7 57.81 C61.19 64.21, 64.18 70.32, 74.15 82.71" stroke="#222222" stroke-width="2" fill="none"></path></g></g><mask></mask><g stroke-linecap="round"><g transform="translate(389.5 480) rotate(0 34.25632163174447 -37.1985140610486)"><path d="M-0.84 0.8 C6.66 -2.98, 34.09 -11.15, 45.78 -23.81 C57.48 -36.48, 65.37 -66.69, 69.35 -75.19 M0.92 0.17 C8.26 -3.28, 33.94 -9.73, 45.25 -22.18 C56.56 -34.62, 64.6 -65.83, 68.77 -74.5" stroke="#222222" stroke-width="2" fill="none"></path></g><g transform="translate(389.5 480) rotate(0 34.25632163174447 -37.1985140610486)"><path d="M69.85 -45.47 C69.19 -56.37, 66.98 -66.02, 67.33 -75.3 M69.38 -46.89 C68.47 -52.02, 68.51 -58.28, 69.28 -74.6" stroke="#222222" stroke-width="2" fill="none"></path></g><g transform="translate(389.5 480) rotate(0 34.25632163174447 -37.1985140610486)"><path d="M52.08 -52.12 C57.89 -60.45, 62.2 -67.66, 67.33 -75.3 M51.62 -53.54 C54.38 -57.12, 58.14 -61.99, 69.28 -74.6" stroke="#222222" stroke-width="2" fill="none"></path></g></g><mask></mask><g stroke-linecap="round"><g transform="translate(453.5 96) rotate(0 -32.97907166595576 -35.83943492658437)"><path d="M0.78 0.19 C-1.68 -7.48, -4.46 -33.19, -15.65 -45.19 C-26.83 -57.2, -57.69 -67.39, -66.33 -71.87 M-0.26 -0.76 C-2.78 -8.39, -5.33 -32.58, -16.41 -44.28 C-27.49 -55.99, -58.23 -66.46, -66.74 -71.01" stroke="#222222" stroke-width="2" fill="none"></path></g><g transform="translate(453.5 96) rotate(0 -32.97907166595576 -35.83943492658437)"><path d="M-37.64 -68.44 C-46.58 -68.17, -52.66 -70.55, -68.55 -72.18 M-38.23 -68.46 C-44.28 -69.37, -49.51 -69.98, -65.97 -71.78" stroke="#222222" stroke-width="2" fill="none"></path></g><g transform="translate(453.5 96) rotate(0 -32.97907166595576 -35.83943492658437)"><path d="M-45.65 -50.4 C-52.87 -54.34, -57.1 -60.86, -68.55 -72.18 M-46.24 -50.43 C-50.77 -55.09, -54.32 -59.47, -65.97 -71.78" stroke="#222222" stroke-width="2" fill="none"></path></g></g><mask></mask></svg>