<svg version="1.1" xmlns="http://www.w3.org/2000/svg" viewBox="0 0 363.78333282470703 346.05483870967737" width="727.5666656494141" height="692.1096774193547" filter="invert(93%) hue-rotate(180deg)">
  <!-- svg-source:excalidraw -->
  
  <defs>
    <style class="style-fonts">
      @font-face {
        font-family: "Virgil";
        src: url("https://excalidraw.com/Virgil.woff2");
      }
      @font-face {
        font-family: "Cascadia";
        src: url("https://excalidraw.com/Cascadia.woff2");
      }
    </style>
  </defs>
  <g transform="translate(116.20833206176769 10) rotate(0 65.68333435058588 9.600000000000001)"><text x="65.68333435058594" y="0" font-family="Cascadia, Segoe UI Emoji" font-size="16px" fill="#1e1e1e" text-anchor="middle" style="white-space: pre;" direction="ltr" dominant-baseline="text-before-edge">Point(x=1,y=2)</text></g><g transform="translate(106.82500076293945 316.8548387096774) rotate(0 75.06666564941406 9.599999999999994)"><text x="75.06666564941406" y="0" font-family="Cascadia, Segoe UI Emoji" font-size="16px" fill="#1e1e1e" text-anchor="middle" style="white-space: pre;" direction="ltr" dominant-baseline="text-before-edge">b'{"x":1,"y":2}'</text></g><g transform="translate(15.50833511352539 160.91188896417373) rotate(0 60.99166488647461 9.599999999999994)"><text x="60.99166488647461" y="0" font-family="Cascadia, Segoe UI Emoji" font-size="16px" fill="#1e1e1e" text-anchor="middle" style="white-space: pre;" direction="ltr" dominant-baseline="text-before-edge">{'x':1,'y':2}</text></g><g stroke-linecap="round" transform="translate(10 67.5274193548387) rotate(0 66.5 21.499999999999993)"><path d="M1.92 1.11 C35.31 0.26, 72.56 0.64, 133.7 0.9 M-0.67 0.03 C53.38 1.43, 105.24 1.23, 132.47 0.91 M132.12 0.38 C132.91 9.72, 131.64 21.59, 131.71 44.05 M132.19 0.87 C133.62 10.83, 133.25 22.81, 132.51 43.53 M131.41 43.13 C105.19 43.51, 78.91 43.63, 1.79 43.67 M133.32 42.36 C80.87 43.8, 27.4 43.74, 0.24 42.08 M1.15 42.27 C1.48 28.5, -1.41 13.37, 1.99 1.75 M-0.03 43.92 C0.66 27.92, -0.05 11.6, 0.01 -0.53" stroke="#1e1e1e" stroke-width="1" fill="none"></path></g><g transform="translate(43.65833282470703 79.4274193548387) rotate(0 32.84166717529297 9.600000000000001)"><text x="32.84166717529297" y="0" font-family="Cascadia, Segoe UI Emoji" font-size="16px" fill="#1e1e1e" text-anchor="middle" style="white-space: pre;" direction="ltr" dominant-baseline="text-before-edge">convert</text></g><g stroke-linecap="round" transform="translate(39 233.52741935483863) rotate(0 37.5 21.5)"><path d="M0.53 -1.69 C27.23 -1.36, 53.33 0.1, 74.1 0.88 M0.16 0.54 C25.42 0.74, 50.92 0.74, 74.05 0.15 M76.05 1.79 C73.95 11.55, 76.21 25.77, 74.13 41.03 M75.13 0.1 C74.13 17.46, 74.15 33.98, 75.7 42.43 M75.2 44.32 C53.08 41.24, 25.46 42.52, 0.16 43.92 M75.44 42.38 C56.31 43.6, 38.03 41.65, 0.03 43.15 M0.02 42.35 C1.25 33.16, -1.32 22.59, 0.37 -0.91 M0.71 43.48 C0.58 28.98, 0.45 16, -0.38 0.32" stroke="#1e1e1e" stroke-width="1" fill="none"></path></g><g transform="translate(53.04166603088379 245.4274193548386) rotate(0 23.45833396911621 9.599999999999994)"><text x="23.45833396911621" y="0" font-family="Cascadia, Segoe UI Emoji" font-size="16px" fill="#1e1e1e" text-anchor="middle" style="white-space: pre;" direction="ltr" dominant-baseline="text-before-edge">loads</text></g><g stroke-linecap="round"><g transform="translate(74.97151883225888 223.00520612790933) rotate(0 1.5284811677411199 -16.18555196840316)"><path d="M1.07 -1.97 C1.61 -11.98, 0.25 -22.72, 2.08 -32.94 M0.98 0.57 C1.53 -10.11, 0.87 -20.14, 1.56 -31.87" stroke="#1e1e1e" stroke-width="2" fill="none"></path></g><g transform="translate(74.97151883225888 223.00520612790933) rotate(0 1.5284811677411199 -16.18555196840316)"><path d="M7.23 -18.65 C5.47 -23.27, 2.21 -28.39, 1.62 -33.38 M7.16 -16.67 C5.52 -21.94, 2.93 -26.7, 1.21 -32.55" stroke="#1e1e1e" stroke-width="2" fill="none"></path></g><g transform="translate(74.97151883225888 223.00520612790933) rotate(0 1.5284811677411199 -16.18555196840316)"><path d="M-3.39 -18.99 C-1.48 -23.39, -1.08 -28.4, 1.62 -33.38 M-3.46 -17.01 C-1.64 -22.16, -0.78 -26.8, 1.21 -32.55" stroke="#1e1e1e" stroke-width="2" fill="none"></path></g></g><mask></mask><g stroke-linecap="round"><g transform="translate(77.53561063510404 151.49077729776258) rotate(0 -1.0356106351040353 -15.771123138256371)"><path d="M-1.87 -0.53 C-0.55 -12.19, 1.04 -20.94, -1.73 -29.11 M-0.35 -0.92 C-0.36 -12.74, -0.08 -24.65, -0.56 -31.01" stroke="#1e1e1e" stroke-width="2" fill="none"></path></g><g transform="translate(77.53561063510404 151.49077729776258) rotate(0 -1.0356106351040353 -15.771123138256371)"><path d="M3.82 -17.05 C3.08 -22.83, 2.61 -26.32, -1.12 -29.54 M5 -17.35 C2.96 -22.69, 1.19 -28.13, -0.21 -31.02" stroke="#1e1e1e" stroke-width="2" fill="none"></path></g><g transform="translate(77.53561063510404 151.49077729776258) rotate(0 -1.0356106351040353 -15.771123138256371)"><path d="M-6.78 -16.67 C-3.91 -22.54, -0.79 -26.16, -1.12 -29.54 M-5.6 -16.97 C-3.47 -22.5, -1.07 -28.09, -0.21 -31.02" stroke="#1e1e1e" stroke-width="2" fill="none"></path></g></g><mask></mask><g transform="translate(226.29166793823242 162.91188896417373) rotate(0 60.99166488647461 9.599999999999994)"><text x="60.99166488647461" y="0" font-family="Cascadia, Segoe UI Emoji" font-size="16px" fill="#1e1e1e" text-anchor="middle" style="white-space: pre;" direction="ltr" dominant-baseline="text-before-edge">{'x':1,'y':2}</text></g><g stroke-linecap="round" transform="translate(220.78333282470703 69.52741935483873) rotate(0 66.5 21.500000000000007)"><path d="M-1.1 1.71 C30.56 2.79, 63.06 2.13, 131.91 -1.38 M0.56 0.31 C52.89 -1.5, 103.99 -1.05, 133.15 0.57 M133.65 -1.93 C133.68 10.69, 134.52 19.77, 134.46 42.35 M132.8 -0.33 C134.15 15.21, 134.23 31.58, 132.89 43.03 M133.37 41.69 C83.55 41.1, 33.42 43.01, -0.56 44.65 M132.47 42.96 C100.52 43.24, 67.63 44.26, 0.15 43.54 M-0.76 41.12 C1.1 29.27, -0.74 11.89, 0.02 -0.74 M0.68 43.67 C-0.28 29.28, 0.83 17.61, -0.94 0.45" stroke="#1e1e1e" stroke-width="1" fill="none"></path></g><g transform="translate(235.67499923706055 81.42741935483873) rotate(0 51.608333587646484 9.600000000000001)"><text x="51.608333587646484" y="0" font-family="Cascadia, Segoe UI Emoji" font-size="16px" fill="#1e1e1e" text-anchor="middle" style="white-space: pre;" direction="ltr" dominant-baseline="text-before-edge">to_builtins</text></g><g stroke-linecap="round" transform="translate(249.78333282470703 235.52741935483868) rotate(0 37.5 21.5)"><path d="M-0.07 0.89 C27.84 -1.96, 59.73 1.04, 76.04 1.12 M-0.68 -0.35 C25.01 1.17, 48.99 0.68, 75.02 0.32 M76.49 0.21 C76.6 8.1, 76.55 19.31, 73.41 42.59 M75.84 -0.29 C75.22 11.52, 76.07 22.44, 74.43 43.19 M75.07 43.76 C56.86 44.22, 38.76 41.58, 1.01 41.95 M75.13 43.59 C52.98 43.21, 31.14 42.71, 0.5 42.62 M-0.73 41.75 C-0.22 33.41, -0.27 24.89, -0.31 1.37 M0.75 43.28 C-0.78 27.68, 0.88 11.46, -0.81 0.1" stroke="#1e1e1e" stroke-width="1" fill="none"></path></g><g transform="translate(263.8249988555908 247.42741935483866) rotate(0 23.45833396911621 9.599999999999994)"><text x="23.45833396911621" y="0" font-family="Cascadia, Segoe UI Emoji" font-size="16px" fill="#1e1e1e" text-anchor="middle" style="white-space: pre;" direction="ltr" dominant-baseline="text-before-edge">dumps</text></g><g stroke-linecap="round"><g transform="translate(285.7548516569659 225.00520612790933) rotate(0 0.8654970768839121 -15.370560597628355)"><path d="M1.87 1.62 C1.9 -9.53, 2.17 -20.23, 0.39 -32.36 M-0.73 0.07 C0.5 -7.89, 0.05 -16.1, 2.46 -30.25" stroke="#1e1e1e" stroke-width="2" fill="none"></path></g><g transform="translate(285.7548516569659 225.00520612790933) rotate(0 0.8654970768839121 -15.370560597628355)"><path d="M-2.22 -11.63 C-1.03 -6.98, 0.55 -2, 0.62 0.56 M-4.23 -12.83 C-2.17 -8.83, -1.47 -4.98, 2.22 2.2" stroke="#1e1e1e" stroke-width="2" fill="none"></path></g><g transform="translate(285.7548516569659 225.00520612790933) rotate(0 0.8654970768839121 -15.370560597628355)"><path d="M8.4 -11.79 C5.93 -7.16, 3.86 -2.13, 0.62 0.56 M6.39 -13 C5.64 -8.89, 3.53 -5, 2.22 2.2" stroke="#1e1e1e" stroke-width="2" fill="none"></path></g></g><mask></mask><g stroke-linecap="round"><g transform="translate(288.3189434598112 153.49077729776263) rotate(0 -0.3854160304032348 -14.784479688853025)"><path d="M1.04 1.12 C0.11 -6.05, -2.36 -15.68, -1.71 -30.69 M0.02 0.32 C-1.1 -10.73, -0.03 -21.37, -0.89 -30.27" stroke="#1e1e1e" stroke-width="2" fill="none"></path></g><g transform="translate(288.3189434598112 153.49077729776263) rotate(0 -0.3854160304032348 -14.784479688853025)"><path d="M-5.33 -11.75 C-3.86 -8.65, -3.94 -7.38, 0.5 1.36 M-6.12 -12.37 C-4.42 -7.47, -0.76 -2.24, 1.13 1.69" stroke="#1e1e1e" stroke-width="2" fill="none"></path></g><g transform="translate(288.3189434598112 153.49077729776263) rotate(0 -0.3854160304032348 -14.784479688853025)"><path d="M5.19 -13.15 C4.24 -9.64, 1.73 -8.05, 0.5 1.36 M4.39 -13.77 C2.33 -8.36, 2.24 -2.64, 1.13 1.69" stroke="#1e1e1e" stroke-width="2" fill="none"></path></g></g><mask></mask><g stroke-linecap="round"><g transform="translate(75.28333282470703 56.85483870967738) rotate(0 15.708063598065621 -16.972057773633857)"><path d="M0.3 -1.06 C1.75 -4.23, 2.78 -14.42, 8.14 -20.07 C13.49 -25.71, 28.47 -32.57, 32.41 -34.94 M-1 1 C0.35 -1.97, 1.78 -13.33, 7.26 -19.09 C12.74 -24.86, 27.76 -30.69, 31.86 -33.59" stroke="#1e1e1e" stroke-width="2" fill="none"></path></g><g transform="translate(75.28333282470703 56.85483870967738) rotate(0 15.708063598065621 -16.972057773633857)"><path d="M21.06 -22.61 C23.59 -25.08, 27.39 -28.64, 32.68 -33.86 M22.39 -23.44 C24.99 -24.84, 26.68 -27.26, 32.16 -34.04" stroke="#1e1e1e" stroke-width="2" fill="none"></path></g><g transform="translate(75.28333282470703 56.85483870967738) rotate(0 15.708063598065621 -16.972057773633857)"><path d="M16.33 -31.27 C20 -31.53, 25.02 -32.87, 32.68 -33.86 M17.66 -32.1 C21.2 -31.64, 23.91 -32.2, 32.16 -34.04" stroke="#1e1e1e" stroke-width="2" fill="none"></path></g></g><mask></mask><g stroke-linecap="round"><g transform="translate(253.5752692266417 50.826896483310804) rotate(89.99999999999994 18.188226786693576 -13.62506292387819)"><path d="M0.34 0.76 C1.97 -2.42, 3.35 -13.74, 9.12 -18.53 C14.89 -23.33, 30.57 -26.52, 34.96 -28.01 M-0.93 0.11 C0.69 -3.48, 2.39 -15.86, 8.76 -20.41 C15.14 -24.96, 32.87 -26.19, 37.31 -27.22" stroke="#1e1e1e" stroke-width="2" fill="none"></path></g><g transform="translate(253.5752692266417 50.826896483310804) rotate(89.99999999999994 18.188226786693576 -13.62506292387819)"><path d="M25.46 -18.86 C28.23 -23.24, 29.6 -24.37, 36.77 -27.3 M24.92 -20.62 C28.72 -22.27, 33.95 -25.52, 37.18 -27.75" stroke="#1e1e1e" stroke-width="2" fill="none"></path></g><g transform="translate(253.5752692266417 50.826896483310804) rotate(89.99999999999994 18.188226786693576 -13.62506292387819)"><path d="M23.95 -28.7 C27.14 -30.66, 28.87 -29.36, 36.77 -27.3 M23.41 -30.46 C27.68 -28.65, 33.44 -28.44, 37.18 -27.75" stroke="#1e1e1e" stroke-width="2" fill="none"></path></g></g><mask></mask><g stroke-linecap="round"><g transform="translate(97.28333282470703 326.8548387096774) rotate(0 -12.171524498672227 -21.784084565192472)"><path d="M0.51 0.36 C-2.54 -1.84, -15.02 -4.88, -19.12 -12.26 C-23.21 -19.64, -23.21 -38.78, -24.06 -43.93 M-0.69 -0.5 C-3.31 -3.12, -12.96 -6.9, -16.99 -14 C-21.02 -21.1, -23.68 -38.41, -24.85 -43.1" stroke="#1e1e1e" stroke-width="2" fill="none"></path></g><g transform="translate(97.28333282470703 326.8548387096774) rotate(0 -12.171524498672227 -21.784084565192472)"><path d="M-16.35 -31.51 C-17.84 -33.15, -21.84 -36.34, -25.04 -42.4 M-16.81 -30.81 C-19.56 -34.36, -23.3 -40.28, -25.19 -43.07" stroke="#1e1e1e" stroke-width="2" fill="none"></path></g><g transform="translate(97.28333282470703 326.8548387096774) rotate(0 -12.171524498672227 -21.784084565192472)"><path d="M-26.6 -29.38 C-25.72 -31.57, -27.33 -35.25, -25.04 -42.4 M-27.05 -28.69 C-25.96 -33.09, -25.87 -39.8, -25.19 -43.07" stroke="#1e1e1e" stroke-width="2" fill="none"></path></g></g><mask></mask><g stroke-linecap="round"><g transform="translate(286.28333282470703 289.8548387096774) rotate(0 -12.31001775762536 19.943752467767354)"><path d="M0.77 0.63 C0.18 4.51, 0.94 16.05, -3.26 22.61 C-7.46 29.16, -21.13 37.12, -24.41 39.97 M-0.28 -0.08 C-0.99 4.03, 0.36 17.57, -3.82 23.94 C-8.01 30.31, -21.73 35.87, -25.39 38.13" stroke="#1e1e1e" stroke-width="2" fill="none"></path></g><g transform="translate(286.28333282470703 289.8548387096774) rotate(0 -12.31001775762536 19.943752467767354)"><path d="M-16.07 29.47 C-20.01 31.35, -21.35 35.97, -24.64 37.87 M-16.92 28.4 C-20.48 32.06, -22.59 35.56, -25.22 37.5" stroke="#1e1e1e" stroke-width="2" fill="none"></path></g><g transform="translate(286.28333282470703 289.8548387096774) rotate(0 -12.31001775762536 19.943752467767354)"><path d="M-12.02 37.24 C-17.23 36.64, -19.88 38.74, -24.64 37.87 M-12.87 36.16 C-17.83 37.01, -21.4 37.7, -25.22 37.5" stroke="#1e1e1e" stroke-width="2" fill="none"></path></g></g><mask></mask></svg>